<svg id="Layer_1" data-name="Layer 1" xmlns="http://www.w3.org/2000/svg" viewBox="0 0 1000 1000"><defs><style>.cls-1{fill:#fff;}.cls-2{fill:#231f20;}</style></defs><path class="cls-1" d="M683,431.76a139.84,139.84,0,0,0-12.55-41.32,72.39,72.39,0,0,0-17.74-23.27A51.5,51.5,0,0,0,636.76,358a52,52,0,0,0-18-3.06,64.49,64.49,0,0,0-17.12,2.14l18.66-39.18-37.63-26.63H555.38c-4.59,0-9.78-3.67-16.22-7.95-11.31-8-26.61-18.69-52.92-18.69-22,0-39.47,6.14-53.24,19l-90,87.53a76.18,76.18,0,0,0-13.47,19.29A150.48,150.48,0,0,0,317,431.76a229.82,229.82,0,0,0-3.67,50.18,250.72,250.72,0,0,0,7,50.2A288.23,288.23,0,0,0,339.67,582a288.91,288.91,0,0,0,29.06,45c28.16,36.42,67,69.47,115,98.27L500,735.39l16.52-10.09c48-28.8,86.6-61.85,115-98.27a267.35,267.35,0,0,0,28.76-45,248,248,0,0,0,19.28-49.9,213.86,213.86,0,0,0,7-50.2A229.24,229.24,0,0,0,683,431.76Z"/><path class="cls-2" d="M473.69,395H423.8l-4.58,75a26.39,26.39,0,0,1,7.95,2.45Z"/><path class="cls-2" d="M434.83,565.21h-.3v6.12l2.44,1.22a47.21,47.21,0,0,0,15.91,2.75,46.68,46.68,0,0,0,15.92-3.36v-6.12a34.8,34.8,0,0,1-16.53,4,33.84,33.84,0,0,1-15.3-3.36Z"/><path class="cls-2" d="M437,588.47l-2.14-.92h-.3v6.13l2.44.92a33.71,33.71,0,0,0,15.61,2.74,34.79,34.79,0,0,0,12.53-1.82v-5.83a34.61,34.61,0,0,1-12.53,2.16A30.51,30.51,0,0,1,437,588.47Z"/><path class="cls-2" d="M437,610.82l-2.14-.92h-.3V616l2.44,1.22a37.93,37.93,0,0,0,15.61,2.46,30.12,30.12,0,0,0,7.34-.3v-5.53a56.78,56.78,0,0,1-7.34.62A34.42,34.42,0,0,1,437,610.82Z"/><path class="cls-2" d="M493,291.25a49.88,49.88,0,0,1,11.94,4c3.67,2.15,7.34,4.3,10.7,6.74,5.5,4.28,11,8,16.52,11.64v-9.19c-4-2.45-8.25-5.2-12.54-7.95A117.15,117.15,0,0,0,507.35,290a54.59,54.59,0,0,0-13.47-3.36,52,52,0,0,0-13.77,0h-.92v3.66h1.22A42.81,42.81,0,0,1,493,291.25Z"/><path class="cls-2" d="M666.75,528.48A233.27,233.27,0,0,1,643.2,585.4l-1.53,3.07-1.22,1.82-1.83,2.78-1.24,2.44L635.85,598l-3.06,4.58-1.22,1.85-2.14,3.06-1.23,1.83-2.44,3.36-1.22,1.54-3.67,4.9-3.38,4.28a333.45,333.45,0,0,1-45,45.6,399.4,399.4,0,0,1-41,30.93c-7,4.89-14.38,9.48-21.72,14.08l-9.8,5.81L490.53,714c-46.52-27.84-84.15-60-111.37-95.18l-2.45-3.08-1.54-1.84-2.75-4-.92-1.22-3.08-4.91-.61-.61-3.36-4.89V598a246,246,0,0,1-31.19-69.79A219.65,219.65,0,0,1,326.82,481a225.48,225.48,0,0,1,3.36-47.43,148.9,148.9,0,0,1,7.36-27.86A36.51,36.51,0,0,0,344,421.65c-.92,4.28-2.14,8.88-2.76,14.08A194.69,194.69,0,0,0,338.15,459l52,24.16a18.34,18.34,0,0,1,2.75-4,18.14,18.14,0,0,1,2.45-2.44L364.45,436a32.63,32.63,0,0,0,17.14.61l21.11,35.82a24,24,0,0,1,8-2.45l-3.38-53.26a32.4,32.4,0,0,0,2.77-7.05l7.64-25.1.31-.92H583.84l1.22-1.22a36.24,36.24,0,0,1,7-6.44,35.86,35.86,0,0,1,8.27-4.58,42.34,42.34,0,0,1,8.87-2.75,32.85,32.85,0,0,1,9.47-.62,40.26,40.26,0,0,1,13.47,2.14,38.57,38.57,0,0,1,11.94,7,58,58,0,0,1,14.39,19,124.86,124.86,0,0,1,11.3,37.66,205.56,205.56,0,0,1,3.67,47.43A222,222,0,0,1,666.75,528.48ZM402.39,407.88a25.93,25.93,0,0,1-3.36,7.95,44.5,44.5,0,0,1-5.8,7.05,39.39,39.39,0,0,1-7.67,4.58A27,27,0,0,1,377,429.6H374a27.89,27.89,0,0,1-5.22-.61,18.67,18.67,0,0,1-5.5-1.53c-1.53-.61-3.06-1.52-4.89-2.44a43,43,0,0,1-4.28-3.36,52,52,0,0,1-3.69-4c-.91-1.55-1.83-3.07-2.75-4.91-.61-1.52-1.22-3.36-1.83-4.89-.31-1.83-.61-3.66-.92-5.52v-2.14a29.1,29.1,0,0,1,2.45-11.33,31.84,31.84,0,0,1,7.05-9.78l28.44-27.85h27.85v27.85Zm39.78-114.49c4-3.67,16.52-15.3,44.07-15.3,22,0,34.56,8.57,45.28,16.22,8,5.52,15,10.1,23.55,10.1H578l24.8,17.75-10.1,22H570.07a13.43,13.43,0,0,1-8.89-3.36,15.6,15.6,0,0,1-4-5.21,15.23,15.23,0,0,1-1.53-6.42h-4a20.13,20.13,0,0,0,1.22,8.58,17.9,17.9,0,0,0,4.28,7.33,10.59,10.59,0,0,0,2.75,2.45l-5.51,11.93L569.76,376H558.12L537.93,358.9h-4.59L548,376H518.35L501.22,358.9h-10.4a39.85,39.85,0,0,0,3.67-14.69v-6.73l-.3-1.54-.61-2.45a42.28,42.28,0,0,0-3.67-10.39,45.34,45.34,0,0,0-6.74-8.58l-.92-.91-1.22-.92-1.84-1.83a26.31,26.31,0,0,0-4.89-3.08,35.82,35.82,0,0,0-15.6-4.89h-4.59v3.67a35.48,35.48,0,0,1,17.75,5.52,19.41,19.41,0,0,1,4,3.06c.61.31.91.92,1.52,1.53l.92.61.91.92a34.29,34.29,0,0,1,4.9,8,28.41,28.41,0,0,1,3.07,8.56l.31,2.46v6.73A33.41,33.41,0,0,1,481,360.74l-4.89,6.14h21.72l9.19,9.16H418.92V343.61H390.78Zm235.6,139.28a138.53,138.53,0,0,0-12.24-39.48,67.66,67.66,0,0,0-16.22-21.74,45,45,0,0,0-14.39-8.26,48.41,48.41,0,0,0-16.22-2.76A41.86,41.86,0,0,0,608,361c-3.36.91-6.72,1.83-10.1,3.08A63.73,63.73,0,0,0,580.46,376L563.64,358l2.75-5.81H589L586.28,358h8.87l17.74-38.27-32.43-23.24H555.37c-6.41,0-11.92-4-19.27-8.89-11.31-8-25.39-17.75-49.87-17.75-20.51,0-36.71,5.81-49.57,17.45L379.45,343,346.7,374.51a72.26,72.26,0,0,0-12.22,18.07,131,131,0,0,0-11.94,40.09,241.15,241.15,0,0,0-3.67,49.27,236.73,236.73,0,0,0,7,48.68,250.44,250.44,0,0,0,19,49A257.09,257.09,0,0,0,373,623.67c27.83,35.82,66.08,68.57,113.51,97L500,729l13.77-8.27c47.42-28.46,85.36-60.91,113.21-97a258.67,258.67,0,0,0,28.45-44.07,269.45,269.45,0,0,0,19-49,235,235,0,0,0,6.74-48.68A241.67,241.67,0,0,0,677.77,432.67Z"/><path class="cls-2" d="M584.14,320.33a2.34,2.34,0,0,1-.3,1.53,1.72,1.72,0,0,1-.92,1.55c-.31.31-.92.61-1.23.91a3.87,3.87,0,0,1-1.84.31,3.33,3.33,0,0,1-1.54-.31,4.28,4.28,0,0,1-1.22-.91,1.71,1.71,0,0,1-.91-1.55,2.28,2.28,0,0,1-.31-1.53,2.73,2.73,0,0,1,.31-1.53c0-.61.3-.92.91-1.53a4.64,4.64,0,0,1,1.22-.92,13.56,13.56,0,0,0,1.54-.3c.61,0,1.24.3,1.84.3.31.31.92.62,1.23.92.61.62.92.92.92,1.53A2.79,2.79,0,0,1,584.14,320.33Z"/><path class="cls-2" d="M555.68,322.47a7.89,7.89,0,0,1,2.44-4,7.55,7.55,0,0,1,4.3-2.45v-4H551.71V322.8Z"/><path class="cls-2" d="M527.23,549a42.93,42.93,0,0,0,20.5,4.91A43.93,43.93,0,0,0,563,551.14c1.83-.61,3.36-1.55,4.89-2.16l2.75-1.22h.61l9.48,7.35v80.51l-4.9-4V557.55l-5.5-4.28v76.52a40.82,40.82,0,0,1-5.5,2.45l-1.23.61a29.54,29.54,0,0,1-16.22,3.68,32.49,32.49,0,0,1-17.75-4.29,40.59,40.59,0,0,0-19.27-4.6l-.61-7.34-.61-8.27L534,624.28l-1.22-8L521.1,562.44l9.49,1.84-3.66-15.62Zm-54.46,0h.31l-3.37,15.32,9.17-1.85-13.16,61.84L490.51,612l-.92,8.27-.3,7.34a34.53,34.53,0,0,0-19.27,4.6,35.51,35.51,0,0,1-17.75,4.29,36,36,0,0,1-16.22-3.68l-1.23-.61a42.11,42.11,0,0,0-5.5-2.45V553.27H429l-5.21,4V631l-4.89,4V554.8l9.49-7.35H429l1.83.92.92.31c1.52.61,3.06,1.52,4.89,2.16a43.75,43.75,0,0,0,15.3,2.75A40.65,40.65,0,0,0,472.77,549Zm93,89.38,1.83-.92c1.53-.91,3.36-1.53,4.58-2.14l4.59,3.67a17.56,17.56,0,0,0-3.67,1.22h-.3l-1.84.92-.91.31a44.6,44.6,0,0,1-22.64,5.21,44.09,44.09,0,0,1-23.25-5.51,26.66,26.66,0,0,0-12.55-3.36l-.3-3.67v-1.23a35.19,35.19,0,0,1,16.52,4.28,37.38,37.38,0,0,0,19.89,4.59,39.35,39.35,0,0,0,17.75-3.36h.3Zm-77.11-4-.3,3.36a26.54,26.54,0,0,0-12.55,3.36,47.55,47.55,0,0,1-23.25,5.83,46.86,46.86,0,0,1-22.33-5.21l-.92-.62-2.46-.92h-.31A21.45,21.45,0,0,0,423.5,639l3.06-2.75.92-.61a23.71,23.71,0,0,1,4.9,2.14l1.83.92a36.82,36.82,0,0,0,18.06,3.66,37.28,37.28,0,0,0,19.88-4.57,34.87,34.87,0,0,1,16.53-4.28v.91Zm16.22-15.92,1.84,55.1H493.58l1.83-55.1.3-9.18,4.28-1.83,4.61,2.14Zm15.29-64.27-8.87-1.84,12.25,58.46-23.27-9.49-23.25,9.49,12.24-58.46-8.88,1.84L492,498.79,485,500.32l14.39-77.14h1.53l14.38,77.14-7-1.53Zm33-100.72-1.22.92-7.34-5.2-7.35,5.2-1.22-.92,2.75-8.56-7.34-5.52.61-1.22H541l2.77-8.58h1.83l2.75,8.58h8.87l.3,1.22-7.33,5.52Zm40.39-15-1.23.92-7-5.2L578,439.4l-1.22-.92,2.75-8.56-7.34-5.21.62-1.53h8.88l2.75-8.57H586l2.75,8.57h8.86l.61,1.53-7.33,5.21Zm19.27.92.61-1.22h8.89l2.75-8.58h1.53l2.75,8.58h8.88l.61,1.22-7.35,5.52,2.75,8.56-1.23.92-7.33-5.2-7,5.2-1.22-.92,2.76-8.56ZM659.11,436c-4.61-26-15-56.93-40.4-56.93a38.73,38.73,0,0,0-8.56.92,26.83,26.83,0,0,0-8.26,3.06,36,36,0,0,0-7,4.89,30.72,30.72,0,0,0-5.2,7h-92.4l-62.71,82,2.13,2.14A42.82,42.82,0,0,1,440,483.8l45.29-20.21-3.69,16.21-38.24,11.94a29.59,29.59,0,0,1,1.22,8.88,20.1,20.1,0,0,1-4-1.22,18.82,18.82,0,0,1-3.67-1.53l-1.53-.62-3.67-1.84a52.38,52.38,0,0,0-9.19-2.76H409.44l-1.85.31a48.44,48.44,0,0,0-9.48,2.75,19.11,19.11,0,0,1-3.66,1.55l-1.84.92a18,18,0,0,1-3.68,1.52,17.22,17.22,0,0,1-3.67,1.23,31.58,31.58,0,0,1,1.22-9.19l-48.94-16.22c0,5.81.31,11.33.61,17.13v1.53a17.58,17.58,0,0,0,.31,3.69,6.79,6.79,0,0,0,.3,2.44h4.59a11.12,11.12,0,0,1,3.36.61,37.29,37.29,0,0,1,9.8,3.37A54.46,54.46,0,0,0,366.3,508,43.08,43.08,0,0,0,377,509.18,40.53,40.53,0,0,0,387.41,508a66.06,66.06,0,0,0,10.1-3.67c1.23-.61,2.75-1.22,4.28-1.83a30.05,30.05,0,0,1,10.41-2.15h4.59a28.13,28.13,0,0,1,10.08,1.83,31,31,0,0,0,4.6,2.14A28.42,28.42,0,0,0,441.56,508a44.58,44.58,0,0,0,20.8,0,30.63,30.63,0,0,0,10.11-3.67l3.36-1.52L474,510.41l7.34-1.54-1.83,8a46.22,46.22,0,0,0-10.09,4,70.77,70.77,0,0,1-8.27,3.08,46.26,46.26,0,0,1-18.36,0,69.78,69.78,0,0,1-8.25-3.08,42.53,42.53,0,0,0-9.81-3.67,43.62,43.62,0,0,0-20.49,0,37.67,37.67,0,0,0-9.78,3.67,76.68,76.68,0,0,1-8.58,3.08,42.23,42.23,0,0,1-8.86.92,47.9,47.9,0,0,1-9.19-.92,74.93,74.93,0,0,1-8.56-3.08,38.49,38.49,0,0,0-9.8-4h-3.67c-1.53,0-3.05-.31-4.58-.31.31,1.83.92,3.67,1.22,5.5a11.38,11.38,0,0,1,3.37.31h1.83l1.53.61,1.52.31a39.16,39.16,0,0,1,6.14,2.77,41.56,41.56,0,0,0,9.78,3.36A38.85,38.85,0,0,0,377,530.61a38.21,38.21,0,0,0,10.08-1.22,37.21,37.21,0,0,0,9.81-3.36,42.29,42.29,0,0,1,8.55-3.38,41.13,41.13,0,0,1,8.88-.92,45.93,45.93,0,0,1,9.17.92,50.54,50.54,0,0,1,8.58,3.38,35.38,35.38,0,0,0,9.48,3.36,40.17,40.17,0,0,0,10.4,1.22,38.23,38.23,0,0,0,10.09-1.22,37.27,37.27,0,0,0,9.8-3.36,30.17,30.17,0,0,1,6.42-2.77l-3.67,16.54a23.17,23.17,0,0,0-5.5,2.44,45.67,45.67,0,0,1-8.27,3.06,32.89,32.89,0,0,1-17.75,0,45,45,0,0,1-8.26-3.06,53.53,53.53,0,0,0-9.8-3.67,42.87,42.87,0,0,0-10.7-1.22,40.68,40.68,0,0,0-10.41,1.22,67.52,67.52,0,0,0-10.09,3.67,33,33,0,0,1-8.27,3.06,31.76,31.76,0,0,1-17.44,0,33.11,33.11,0,0,1-8.26-3.06l-3.67-1.53h-.61a25.78,25.78,0,0,0-8.28-2.44c.92,2.74,1.84,5.8,3.06,8.55a222.54,222.54,0,0,0,17.14,36.43l1.22,1.84,1.55,2.45.92,1.83,1.52,2.46,1.23,1.83,1.52,2.14,1.53,2.14,1.53,2.14,1.52,2.45,1.23,1.85,2.14,2.75,1.22,1.52,3.06,4.29c26.32,34,62.73,64.89,108.32,92.13l3.66,2.45,4-2.45c45.6-27.24,82-58.15,108.31-92.13l4.59-6.43.61-.91c1.53-2.16,3.08-4.3,4.6-6.44l.31-.61c3.06-4.59,6.11-9.49,9.17-14.08a244.58,244.58,0,0,0,18.06-38.58,57.16,57.16,0,0,0,2.75-7.63,44.39,44.39,0,0,0-8.56,2.44h-.61l-3.67,1.84a53,53,0,0,1-8.27,3.05,41.58,41.58,0,0,1-8.86.92,41.11,41.11,0,0,1-8.58-.92,52.33,52.33,0,0,1-8.25-3.05,31.07,31.07,0,0,0-10.1-3.68,40.61,40.61,0,0,0-10.4-1.22A43,43,0,0,0,574,538.86a29.24,29.24,0,0,0-9.78,3.68c-2.77,1.22-5.53,2.13-8.28,3.05a43.7,43.7,0,0,1-8.86.92,41,41,0,0,1-8.58-.92,71.08,71.08,0,0,1-8.55-3.05,46.19,46.19,0,0,0-5.51-2.76l-6.74-30.62,7.35,1.55-4-19.9L545,467.23l15.59,11.63,24.8-24.79,24.47,24.79,15.61-11.63,28.14,28.47,7,7.35c.31-2.44.61-4.89.92-7.65V493A235.9,235.9,0,0,0,659.11,436Z"/><path class="cls-2" d="M563.34,572.24l2.45-1.22v-6.11h-.62l-1.83,1.22c-5.21,2.15-10.1,3.37-15.61,3.06a31.05,31.05,0,0,1-16.52-3.67v6.12a47.69,47.69,0,0,0,15.91,3.05,49,49,0,0,0,16.22-2.75Z"/><path class="cls-2" d="M563.34,588.47a34.92,34.92,0,0,1-15.61,3.38,37.5,37.5,0,0,1-12.85-2.16v5.83a46,46,0,0,0,28.46-.92l2.45-1.22v-6.14h-.62Z"/><path class="cls-2" d="M563.34,610.82a31.4,31.4,0,0,1-15.61,3.36,59.09,59.09,0,0,1-7.35-.62v5.53a59.06,59.06,0,0,0,7.35.61,46.41,46.41,0,0,0,15.61-2.77l2.45-1.22V609.9h-.62Z"/><polygon class="cls-2" points="366.59 407.57 369.65 409.71 401.78 365.95 401.78 360.12 396.58 360.12 366.59 407.57"/><polygon class="cls-2" points="548.96 518.99 548.96 500.01 540.99 500.01 540.99 504.6 543.76 504.6 543.76 518.99 548.96 518.99"/><path class="cls-2" d="M571.29,515.32a1.57,1.57,0,0,1-1.22-.62,1.65,1.65,0,0,1-.62-1.52c0-.61,0-.92.62-1.22a1.57,1.57,0,0,1,1.22-.62c.61,0,.92.31,1.53.62.3.31.3.61.3,1.22a2.75,2.75,0,0,1-.3,1.52c-.31.31-.92.31-1.22.62Zm0-8.58a2.24,2.24,0,0,1-1.22-.61,1.82,1.82,0,0,1-.31-1.22c0-.62,0-.92.61-1.23a1.58,1.58,0,0,1,1.23-.61,2.31,2.31,0,0,1,1.22.61,1.54,1.54,0,0,1,0,2.45,2.31,2.31,0,0,1-1.22.61Zm-7.34,7c.31.91.62,1.53.92,2.44l1.84,1.83a4.88,4.88,0,0,0,2.13,1.22,6.67,6.67,0,0,0,2.45.31,5.92,5.92,0,0,0,2.45-.31,4.88,4.88,0,0,0,2.13-1.22l1.84-1.83c.3-.92.61-1.53.92-2.44a5,5,0,0,0-.92-2.75,4.67,4.67,0,0,0-2.45-1.85,2.74,2.74,0,0,0,1.83-1.84,2.37,2.37,0,0,0,.62-2.44,5.6,5.6,0,0,0-.62-2.15,7.92,7.92,0,0,0-1.52-1.83c-.61-.31-1.23-.91-1.83-.91a6.92,6.92,0,0,0-2.45-.62,5.61,5.61,0,0,0-2.14.62,4.6,4.6,0,0,0-2.14.91,7.92,7.92,0,0,0-1.52,1.83,5.6,5.6,0,0,0-.62,2.15,3.25,3.25,0,0,0,.62,2.44,2.74,2.74,0,0,0,1.83,1.84,4.72,4.72,0,0,0-2.45,1.85A5,5,0,0,0,564,513.79Z"/><path class="cls-2" d="M600.06,510.1a1.08,1.08,0,0,1,.91.32c.61,0,.61.32.92.62a.65.65,0,0,1,.61.61,2.3,2.3,0,0,1,.31,1.23,1.11,1.11,0,0,1-.31.91c0,.31-.3.61-.61.92s-.31.61-.92.61a1.11,1.11,0,0,1-.91.31,1.13,1.13,0,0,1-.94-.31c-.61,0-.61-.31-.92-.61s-.61-.61-.61-.92a1.11,1.11,0,0,1-.31-.91,2.28,2.28,0,0,1,.31-1.23.65.65,0,0,1,.61-.61c.31-.31.31-.62.92-.62A1.12,1.12,0,0,1,600.06,510.1Zm-.94-9.78-4,5.2a13,13,0,0,0-3.06,7.36,7.67,7.67,0,0,0,2.44,5.49,11.47,11.47,0,0,0,5.53,1.53,10.31,10.31,0,0,0,3.06-.31,12.86,12.86,0,0,0,2.75-1.53,6.67,6.67,0,0,0,1.53-2.44,5.19,5.19,0,0,0,.91-3.06,7,7,0,0,0-.3-2.46,5.43,5.43,0,0,0-1.54-2.14,8,8,0,0,0-1.83-1.53,9.35,9.35,0,0,0-2.44-.62c-.62,0-1.23.31-1.84.31l4.89-5.81h-6.13Z"/><path class="cls-2" d="M627.89,515.32c-.61,0-.92-.31-1.53-.62a2.68,2.68,0,0,1-.31-1.52c0-.61,0-.92.31-1.22.61-.31.92-.62,1.53-.62a1.58,1.58,0,0,1,1.22.62c.61.31.61.61.61,1.22a1.66,1.66,0,0,1-.61,1.52A1.57,1.57,0,0,1,627.89,515.32Zm0-8.58a1.56,1.56,0,0,1-1.22-.61c-.62-.31-.62-.62-.62-1.22a1.82,1.82,0,0,1,.31-1.23c.61-.31.92-.61,1.53-.61a2.28,2.28,0,0,1,1.22.61,1.54,1.54,0,0,1,0,2.45A1.56,1.56,0,0,1,627.89,506.74Zm-7.34,7c.31.91.62,1.53.92,2.44a10.61,10.61,0,0,0,1.84,1.83,4.86,4.86,0,0,0,2.14,1.22,5.85,5.85,0,0,0,2.44.31,6.69,6.69,0,0,0,2.45-.31,7.5,7.5,0,0,0,2.13-1.22,8,8,0,0,0,1.53-1.83,9.13,9.13,0,0,0,1.22-2.44,5,5,0,0,0-.91-2.75,4.67,4.67,0,0,0-2.45-1.85,2.74,2.74,0,0,0,1.83-1.84,5.69,5.69,0,0,0,.62-2.44,5.6,5.6,0,0,0-.62-2.15c-.61-.61-.91-1.22-1.52-1.83A4.5,4.5,0,0,0,630,500a5.44,5.44,0,0,0-2.14-.62,7,7,0,0,0-2.44.62c-.62,0-1.23.61-1.84.91a7.92,7.92,0,0,0-1.52,1.83c-.31.61-.62,1.53-.92,2.15a3.43,3.43,0,0,0,.92,2.44,2.74,2.74,0,0,0,1.83,1.84,3.79,3.79,0,0,0-2.45,1.85A5,5,0,0,0,620.55,513.79Z"/></svg>