{
    "asset" : {
        "generator" : "Khronos glTF Blender I/O v3.4.50",
        "version" : "2.0"
    },
    "extensionsUsed" : [
        "KHR_materials_specular",
        "KHR_materials_ior"
    ],
    "scene" : 0,
    "scenes" : [
        {
            "name" : "Scene",
            "nodes" : [
                8
            ]
        }
    ],
    "nodes" : [
        {
            "mesh" : 0,
            "name" : "Cube.004",
            "scale" : [
                0.1755780279636383,
                2.803288459777832,
                0.018464984372258186
            ],
            "translation" : [
                -0.004502986557781696,
                -0.009338030591607094,
                0.0067427027970552444
            ]
        },
        {
            "mesh" : 1,
            "name" : "Cube.005",
            "scale" : [
                0.1755780279636383,
                2.803288459777832,
                0.018464984372258186
            ],
            "translation" : [
                -0.0018729614093899727,
                -0.009338030591607094,
                0.0067427027970552444
            ]
        },
        {
            "mesh" : 2,
            "name" : "Cube.006",
            "scale" : [
                0.1755780279636383,
                2.803288459777832,
                0.018464984372258186
            ],
            "translation" : [
                0.0013244766741991043,
                -0.009338030591607094,
                0.0067427027970552444
            ]
        },
        {
            "mesh" : 3,
            "name" : "Cube.007",
            "scale" : [
                0.1755780279636383,
                2.803288459777832,
                0.018464984372258186
            ],
            "translation" : [
                0.00416856724768877,
                -0.009338030591607094,
                0.0067427027970552444
            ]
        },
        {
            "mesh" : 4,
            "name" : "Cube.008",
            "rotation" : [
                0,
                -1,
                0,
                7.777582311518927e-08
            ],
            "scale" : [
                0.1755780279636383,
                2.803288459777832,
                0.018464984372258186
            ],
            "translation" : [
                -0.004502986557781696,
                -0.009338030591607094,
                -0.006796170026063919
            ]
        },
        {
            "mesh" : 5,
            "name" : "Cube.009",
            "rotation" : [
                0,
                -1,
                0,
                7.777582311518927e-08
            ],
            "scale" : [
                0.1755780279636383,
                2.803288459777832,
                0.018464984372258186
            ],
            "translation" : [
                -0.0018729614093899727,
                -0.009338030591607094,
                -0.006806997582316399
            ]
        },
        {
            "mesh" : 6,
            "name" : "Cube.010",
            "rotation" : [
                0,
                -1,
                0,
                7.777582311518927e-08
            ],
            "scale" : [
                0.1755780279636383,
                2.803288459777832,
                0.018464984372258186
            ],
            "translation" : [
                0.0013244766741991043,
                -0.009338030591607094,
                -0.006806997582316399
            ]
        },
        {
            "mesh" : 7,
            "name" : "Cube.011",
            "rotation" : [
                0,
                -1,
                0,
                7.777582311518927e-08
            ],
            "scale" : [
                0.1755780279636383,
                2.803288459777832,
                0.018464984372258186
            ],
            "translation" : [
                0.00416856724768877,
                -0.009338030591607094,
                -0.006768284365534782
            ]
        },
        {
            "children" : [
                0,
                1,
                2,
                3,
                4,
                5,
                6,
                7
            ],
            "mesh" : 8,
            "name" : "chip",
            "scale" : [
                3.9681451320648193,
                0.48414868116378784,
                3.1057722568511963
            ],
            "translation" : [
                0.05124165117740631,
                0.007850449532270432,
                0.09021817892789841
            ]
        }
    ],
    "materials" : [
        {
            "doubleSided" : true,
            "name" : "Material.001",
            "pbrMetallicRoughness" : {
                "baseColorFactor" : [
                    0.6257959604263306,
                    0.6257959604263306,
                    0.6257959604263306,
                    1
                ],
                "metallicFactor" : 0.7614678740501404,
                "roughnessFactor" : 0.5
            }
        },
        {
            "doubleSided" : true,
            "extensions" : {
                "KHR_materials_specular" : {
                    "specularColorFactor" : [
                        0.4459892812974713,
                        0.4459892812974713,
                        0.4459892812974713
                    ]
                },
                "KHR_materials_ior" : {
                    "ior" : 1.4500000476837158
                }
            },
            "name" : "grit_gray",
            "pbrMetallicRoughness" : {
                "baseColorFactor" : [
                    0.03954625129699707,
                    0.0368894599378109,
                    0.04373503103852272,
                    1
                ],
                "metallicFactor" : 0,
                "roughnessFactor" : 0.9954128265380859
            }
        }
    ],
    "meshes" : [
        {
            "name" : "Cube.007",
            "primitives" : [
                {
                    "attributes" : {
                        "POSITION" : 0,
                        "TEXCOORD_0" : 1,
                        "NORMAL" : 2
                    },
                    "indices" : 3,
                    "material" : 0
                }
            ]
        },
        {
            "name" : "Cube.012",
            "primitives" : [
                {
                    "attributes" : {
                        "POSITION" : 4,
                        "TEXCOORD_0" : 5,
                        "NORMAL" : 6
                    },
                    "indices" : 3,
                    "material" : 0
                }
            ]
        },
        {
            "name" : "Cube.013",
            "primitives" : [
                {
                    "attributes" : {
                        "POSITION" : 7,
                        "TEXCOORD_0" : 8,
                        "NORMAL" : 9
                    },
                    "indices" : 3,
                    "material" : 0
                }
            ]
        },
        {
            "name" : "Cube.014",
            "primitives" : [
                {
                    "attributes" : {
                        "POSITION" : 10,
                        "TEXCOORD_0" : 11,
                        "NORMAL" : 12
                    },
                    "indices" : 3,
                    "material" : 0
                }
            ]
        },
        {
            "name" : "Cube.015",
            "primitives" : [
                {
                    "attributes" : {
                        "POSITION" : 13,
                        "TEXCOORD_0" : 14,
                        "NORMAL" : 15
                    },
                    "indices" : 3,
                    "material" : 0
                }
            ]
        },
        {
            "name" : "Cube.016",
            "primitives" : [
                {
                    "attributes" : {
                        "POSITION" : 16,
                        "TEXCOORD_0" : 17,
                        "NORMAL" : 18
                    },
                    "indices" : 3,
                    "material" : 0
                }
            ]
        },
        {
            "name" : "Cube.017",
            "primitives" : [
                {
                    "attributes" : {
                        "POSITION" : 19,
                        "TEXCOORD_0" : 20,
                        "NORMAL" : 21
                    },
                    "indices" : 3,
                    "material" : 0
                }
            ]
        },
        {
            "name" : "Cube.018",
            "primitives" : [
                {
                    "attributes" : {
                        "POSITION" : 22,
                        "TEXCOORD_0" : 23,
                        "NORMAL" : 24
                    },
                    "indices" : 3,
                    "material" : 0
                }
            ]
        },
        {
            "name" : "Cube.005",
            "primitives" : [
                {
                    "attributes" : {
                        "POSITION" : 25,
                        "TEXCOORD_0" : 26,
                        "NORMAL" : 27
                    },
                    "indices" : 28,
                    "material" : 1
                },
                {
                    "attributes" : {
                        "POSITION" : 29,
                        "TEXCOORD_0" : 30,
                        "NORMAL" : 31
                    },
                    "indices" : 32,
                    "material" : 1
                }
            ]
        }
    ],
    "accessors" : [
        {
            "bufferView" : 0,
            "componentType" : 5126,
            "count" : 3402,
            "max" : [
                0.0038168360479176044,
                0.006096200086176395,
                0.00634999992325902
            ],
            "min" : [
                -0.0037016989663243294,
                -0.0018620624905452132,
                -0.04593056067824364
            ],
            "type" : "VEC3"
        },
        {
            "bufferView" : 1,
            "componentType" : 5126,
            "count" : 3402,
            "type" : "VEC2"
        },
        {
            "bufferView" : 2,
            "componentType" : 5126,
            "count" : 3402,
            "type" : "VEC3"
        },
        {
            "bufferView" : 3,
            "componentType" : 5123,
            "count" : 5616,
            "type" : "SCALAR"
        },
        {
            "bufferView" : 4,
            "componentType" : 5126,
            "count" : 3402,
            "max" : [
                0.0038168360479176044,
                0.006096200086176395,
                0.00634999992325902
            ],
            "min" : [
                -0.0037016989663243294,
                -0.0018620624905452132,
                -0.04593056067824364
            ],
            "type" : "VEC3"
        },
        {
            "bufferView" : 5,
            "componentType" : 5126,
            "count" : 3402,
            "type" : "VEC2"
        },
        {
            "bufferView" : 6,
            "componentType" : 5126,
            "count" : 3402,
            "type" : "VEC3"
        },
        {
            "bufferView" : 7,
            "componentType" : 5126,
            "count" : 3402,
            "max" : [
                0.0038168360479176044,
                0.006096200086176395,
                0.00634999992325902
            ],
            "min" : [
                -0.0037016989663243294,
                -0.0018620624905452132,
                -0.04593056067824364
            ],
            "type" : "VEC3"
        },
        {
            "bufferView" : 8,
            "componentType" : 5126,
            "count" : 3402,
            "type" : "VEC2"
        },
        {
            "bufferView" : 9,
            "componentType" : 5126,
            "count" : 3402,
            "type" : "VEC3"
        },
        {
            "bufferView" : 10,
            "componentType" : 5126,
            "count" : 3402,
            "max" : [
                0.0038168360479176044,
                0.006096200086176395,
                0.00634999992325902
            ],
            "min" : [
                -0.0037016989663243294,
                -0.0018620624905452132,
                -0.04593056067824364
            ],
            "type" : "VEC3"
        },
        {
            "bufferView" : 11,
            "componentType" : 5126,
            "count" : 3402,
            "type" : "VEC2"
        },
        {
            "bufferView" : 12,
            "componentType" : 5126,
            "count" : 3402,
            "type" : "VEC3"
        },
        {
            "bufferView" : 13,
            "componentType" : 5126,
            "count" : 3402,
            "max" : [
                0.0038168360479176044,
                0.006096200086176395,
                0.00634999992325902
            ],
            "min" : [
                -0.0037016989663243294,
                -0.0018620624905452132,
                -0.04593056067824364
            ],
            "type" : "VEC3"
        },
        {
            "bufferView" : 14,
            "componentType" : 5126,
            "count" : 3402,
            "type" : "VEC2"
        },
        {
            "bufferView" : 15,
            "componentType" : 5126,
            "count" : 3402,
            "type" : "VEC3"
        },
        {
            "bufferView" : 16,
            "componentType" : 5126,
            "count" : 3402,
            "max" : [
                0.0038168360479176044,
                0.006096200086176395,
                0.00634999992325902
            ],
            "min" : [
                -0.0037016989663243294,
                -0.0018620624905452132,
                -0.04593056067824364
            ],
            "type" : "VEC3"
        },
        {
            "bufferView" : 17,
            "componentType" : 5126,
            "count" : 3402,
            "type" : "VEC2"
        },
        {
            "bufferView" : 18,
            "componentType" : 5126,
            "count" : 3402,
            "type" : "VEC3"
        },
        {
            "bufferView" : 19,
            "componentType" : 5126,
            "count" : 3402,
            "max" : [
                0.0038168360479176044,
                0.006096200086176395,
                0.00634999992325902
            ],
            "min" : [
                -0.0037016989663243294,
                -0.0018620624905452132,
                -0.04593056067824364
            ],
            "type" : "VEC3"
        },
        {
            "bufferView" : 20,
            "componentType" : 5126,
            "count" : 3402,
            "type" : "VEC2"
        },
        {
            "bufferView" : 21,
            "componentType" : 5126,
            "count" : 3402,
            "type" : "VEC3"
        },
        {
            "bufferView" : 22,
            "componentType" : 5126,
            "count" : 3402,
            "max" : [
                0.0038168360479176044,
                0.006096200086176395,
                0.00634999992325902
            ],
            "min" : [
                -0.0037016989663243294,
                -0.0018620624905452132,
                -0.04593056067824364
            ],
            "type" : "VEC3"
        },
        {
            "bufferView" : 23,
            "componentType" : 5126,
            "count" : 3402,
            "type" : "VEC2"
        },
        {
            "bufferView" : 24,
            "componentType" : 5126,
            "count" : 3402,
            "type" : "VEC3"
        },
        {
            "bufferView" : 25,
            "componentType" : 5126,
            "count" : 71,
            "max" : [
                0.006349998060613871,
                0.00634999992325902,
                0.006350002717226744
            ],
            "min" : [
                -0.006350001785904169,
                -0.00634999992325902,
                -0.006350002717226744
            ],
            "type" : "VEC3"
        },
        {
            "bufferView" : 26,
            "componentType" : 5126,
            "count" : 71,
            "type" : "VEC2"
        },
        {
            "bufferView" : 27,
            "componentType" : 5126,
            "count" : 71,
            "type" : "VEC3"
        },
        {
            "bufferView" : 28,
            "componentType" : 5123,
            "count" : 165,
            "type" : "SCALAR"
        },
        {
            "bufferView" : 29,
            "componentType" : 5126,
            "count" : 115,
            "max" : [
                0.006349998060613871,
                0.00634999992325902,
                0.0045021758414804935
            ],
            "min" : [
                -0.006350001785904169,
                0.004144424572587013,
                -0.0036893615033477545
            ],
            "type" : "VEC3"
        },
        {
            "bufferView" : 30,
            "componentType" : 5126,
            "count" : 115,
            "type" : "VEC2"
        },
        {
            "bufferView" : 31,
            "componentType" : 5126,
            "count" : 115,
            "type" : "VEC3"
        },
        {
            "bufferView" : 32,
            "componentType" : 5123,
            "count" : 195,
            "type" : "SCALAR"
        }
    ],
    "bufferViews" : [
        {
            "buffer" : 0,
            "byteLength" : 40824,
            "byteOffset" : 0,
            "target" : 34962
        },
        {
            "buffer" : 0,
            "byteLength" : 27216,
            "byteOffset" : 40824,
            "target" : 34962
        },
        {
            "buffer" : 0,
            "byteLength" : 40824,
            "byteOffset" : 68040,
            "target" : 34962
        },
        {
            "buffer" : 0,
            "byteLength" : 11232,
            "byteOffset" : 108864,
            "target" : 34963
        },
        {
            "buffer" : 0,
            "byteLength" : 40824,
            "byteOffset" : 120096,
            "target" : 34962
        },
        {
            "buffer" : 0,
            "byteLength" : 27216,
            "byteOffset" : 160920,
            "target" : 34962
        },
        {
            "buffer" : 0,
            "byteLength" : 40824,
            "byteOffset" : 188136,
            "target" : 34962
        },
        {
            "buffer" : 0,
            "byteLength" : 40824,
            "byteOffset" : 228960,
            "target" : 34962
        },
        {
            "buffer" : 0,
            "byteLength" : 27216,
            "byteOffset" : 269784,
            "target" : 34962
        },
        {
            "buffer" : 0,
            "byteLength" : 40824,
            "byteOffset" : 297000,
            "target" : 34962
        },
        {
            "buffer" : 0,
            "byteLength" : 40824,
            "byteOffset" : 337824,
            "target" : 34962
        },
        {
            "buffer" : 0,
            "byteLength" : 27216,
            "byteOffset" : 378648,
            "target" : 34962
        },
        {
            "buffer" : 0,
            "byteLength" : 40824,
            "byteOffset" : 405864,
            "target" : 34962
        },
        {
            "buffer" : 0,
            "byteLength" : 40824,
            "byteOffset" : 446688,
            "target" : 34962
        },
        {
            "buffer" : 0,
            "byteLength" : 27216,
            "byteOffset" : 487512,
            "target" : 34962
        },
        {
            "buffer" : 0,
            "byteLength" : 40824,
            "byteOffset" : 514728,
            "target" : 34962
        },
        {
            "buffer" : 0,
            "byteLength" : 40824,
            "byteOffset" : 555552,
            "target" : 34962
        },
        {
            "buffer" : 0,
            "byteLength" : 27216,
            "byteOffset" : 596376,
            "target" : 34962
        },
        {
            "buffer" : 0,
            "byteLength" : 40824,
            "byteOffset" : 623592,
            "target" : 34962
        },
        {
            "buffer" : 0,
            "byteLength" : 40824,
            "byteOffset" : 664416,
            "target" : 34962
        },
        {
            "buffer" : 0,
            "byteLength" : 27216,
            "byteOffset" : 705240,
            "target" : 34962
        },
        {
            "buffer" : 0,
            "byteLength" : 40824,
            "byteOffset" : 732456,
            "target" : 34962
        },
        {
            "buffer" : 0,
            "byteLength" : 40824,
            "byteOffset" : 773280,
            "target" : 34962
        },
        {
            "buffer" : 0,
            "byteLength" : 27216,
            "byteOffset" : 814104,
            "target" : 34962
        },
        {
            "buffer" : 0,
            "byteLength" : 40824,
            "byteOffset" : 841320,
            "target" : 34962
        },
        {
            "buffer" : 0,
            "byteLength" : 852,
            "byteOffset" : 882144,
            "target" : 34962
        },
        {
            "buffer" : 0,
            "byteLength" : 568,
            "byteOffset" : 882996,
            "target" : 34962
        },
        {
            "buffer" : 0,
            "byteLength" : 852,
            "byteOffset" : 883564,
            "target" : 34962
        },
        {
            "buffer" : 0,
            "byteLength" : 330,
            "byteOffset" : 884416,
            "target" : 34963
        },
        {
            "buffer" : 0,
            "byteLength" : 1380,
            "byteOffset" : 884748,
            "target" : 34962
        },
        {
            "buffer" : 0,
            "byteLength" : 920,
            "byteOffset" : 886128,
            "target" : 34962
        },
        {
            "buffer" : 0,
            "byteLength" : 1380,
            "byteOffset" : 887048,
            "target" : 34962
        },
        {
            "buffer" : 0,
            "byteLength" : 390,
            "byteOffset" : 888428,
            "target" : 34963
        }
    ],
    "buffers" : [
        {
            "byteLength" : 888820,
            "uri" : "data:application/octet-stream;base64,"
        }
    ]
}
