{
    "asset" : {
        "generator" : "Khronos glTF Blender I/O v3.4.50",
        "version" : "2.0"
    },
    "scene" : 0,
    "scenes" : [
        {
            "name" : "Scene",
            "nodes" : [
                0,
                1
            ]
        }
    ],
    "nodes" : [
        {
            "mesh" : 0,
            "name" : "yellow_cap_4",
            "rotation" : [
                0.7071068286895752,
                0,
                0,
                0.7071068286895752
            ],
            "scale" : [
                1,
                1.5,
                1
            ],
            "translation" : [
                0.08859774470329285,
                0.00910153053700924,
                -0.020407386124134064
            ]
        },
        {
            "mesh" : 1,
            "name" : "yellow_cap_4_plane",
            "scale" : [
                1,
                0.00800000037997961,
                1
            ],
            "translation" : [
                0.08834388107061386,
                0.002029026858508587,
                -0.01895664632320404
            ]
        }
    ],
    "materials" : [
        {
            "doubleSided" : true,
            "name" : "gray",
            "pbrMetallicRoughness" : {
                "baseColorFactor" : [
                    0.6257959604263306,
                    0.6257959604263306,
                    0.6257959604263306,
                    1
                ],
                "metallicFactor" : 0.7614678740501404,
                "roughnessFactor" : 0.5
            }
        },
        {
            "doubleSided" : true,
            "name" : "yellow_cap",
            "pbrMetallicRoughness" : {
                "baseColorFactor" : [
                    1,
                    0.5088813900947571,
                    0.005181516520678997,
                    1
                ],
                "metallicFactor" : 0,
                "roughnessFactor" : 0.20000000298023224
            }
        },
        {
            "doubleSided" : true,
            "name" : "white",
            "pbrMetallicRoughness" : {
                "baseColorFactor" : [
                    0.800000011920929,
                    0.800000011920929,
                    0.800000011920929,
                    1
                ],
                "metallicFactor" : 0,
                "roughnessFactor" : 0.5
            }
        }
    ],
    "meshes" : [
        {
            "name" : "Cylinder.046",
            "primitives" : [
                {
                    "attributes" : {
                        "POSITION" : 0,
                        "TEXCOORD_0" : 1,
                        "NORMAL" : 2
                    },
                    "indices" : 3,
                    "material" : 0
                },
                {
                    "attributes" : {
                        "POSITION" : 4,
                        "TEXCOORD_0" : 5,
                        "NORMAL" : 6
                    },
                    "indices" : 7,
                    "material" : 1
                }
            ]
        },
        {
            "name" : "Cube.022",
            "primitives" : [
                {
                    "attributes" : {
                        "POSITION" : 8,
                        "TEXCOORD_0" : 9,
                        "NORMAL" : 10
                    },
                    "indices" : 11,
                    "material" : 2
                }
            ]
        }
    ],
    "accessors" : [
        {
            "bufferView" : 0,
            "componentType" : 5126,
            "count" : 4788,
            "max" : [
                0.0012664078967645764,
                0.021647511050105095,
                0.011141483671963215
            ],
            "min" : [
                -0.001266408246010542,
                -0.023405568674206734,
                -0.0012664074311032891
            ],
            "type" : "VEC3"
        },
        {
            "bufferView" : 1,
            "componentType" : 5126,
            "count" : 4788,
            "type" : "VEC2"
        },
        {
            "bufferView" : 2,
            "componentType" : 5126,
            "count" : 4788,
            "type" : "VEC3"
        },
        {
            "bufferView" : 3,
            "componentType" : 5123,
            "count" : 7092,
            "type" : "SCALAR"
        },
        {
            "bufferView" : 4,
            "componentType" : 5126,
            "count" : 2698,
            "max" : [
                0.007109897211194038,
                0.00688980845734477,
                0.007109896745532751
            ],
            "min" : [
                -0.0071098986081779,
                -0.005661039613187313,
                -0.007109899539500475
            ],
            "type" : "VEC3"
        },
        {
            "bufferView" : 5,
            "componentType" : 5126,
            "count" : 2698,
            "type" : "VEC2"
        },
        {
            "bufferView" : 6,
            "componentType" : 5126,
            "count" : 2698,
            "type" : "VEC3"
        },
        {
            "bufferView" : 7,
            "componentType" : 5123,
            "count" : 4050,
            "type" : "SCALAR"
        },
        {
            "bufferView" : 8,
            "componentType" : 5126,
            "count" : 168,
            "max" : [
                0.009011246263980865,
                0.01269999984651804,
                0.020621290430426598
            ],
            "min" : [
                -0.009011246263980865,
                -0.01269999984651804,
                -0.020621290430426598
            ],
            "type" : "VEC3"
        },
        {
            "bufferView" : 9,
            "componentType" : 5126,
            "count" : 168,
            "type" : "VEC2"
        },
        {
            "bufferView" : 10,
            "componentType" : 5126,
            "count" : 168,
            "type" : "VEC3"
        },
        {
            "bufferView" : 11,
            "componentType" : 5123,
            "count" : 324,
            "type" : "SCALAR"
        }
    ],
    "bufferViews" : [
        {
            "buffer" : 0,
            "byteLength" : 57456,
            "byteOffset" : 0,
            "target" : 34962
        },
        {
            "buffer" : 0,
            "byteLength" : 38304,
            "byteOffset" : 57456,
            "target" : 34962
        },
        {
            "buffer" : 0,
            "byteLength" : 57456,
            "byteOffset" : 95760,
            "target" : 34962
        },
        {
            "buffer" : 0,
            "byteLength" : 14184,
            "byteOffset" : 153216,
            "target" : 34963
        },
        {
            "buffer" : 0,
            "byteLength" : 32376,
            "byteOffset" : 167400,
            "target" : 34962
        },
        {
            "buffer" : 0,
            "byteLength" : 21584,
            "byteOffset" : 199776,
            "target" : 34962
        },
        {
            "buffer" : 0,
            "byteLength" : 32376,
            "byteOffset" : 221360,
            "target" : 34962
        },
        {
            "buffer" : 0,
            "byteLength" : 8100,
            "byteOffset" : 253736,
            "target" : 34963
        },
        {
            "buffer" : 0,
            "byteLength" : 2016,
            "byteOffset" : 261836,
            "target" : 34962
        },
        {
            "buffer" : 0,
            "byteLength" : 1344,
            "byteOffset" : 263852,
            "target" : 34962
        },
        {
            "buffer" : 0,
            "byteLength" : 2016,
            "byteOffset" : 265196,
            "target" : 34962
        },
        {
            "buffer" : 0,
            "byteLength" : 648,
            "byteOffset" : 267212,
            "target" : 34963
        }
    ],
    "buffers" : [
        {
            "byteLength" : 267860,
            "uri" : "data:application/octet-stream;base64,"
        }
    ]
}
